<svg xmlns="http://www.w3.org/2000/svg" viewBox="0 0 420 320" role="img" aria-label="Recuperação de senha">
  <defs>
    <linearGradient id="env" x1="0" y1="0" x2="1" y2="1">
      <stop offset="0%" stop-color="#7c5cff"/>
      <stop offset="100%" stop-color="#5b3fd6"/>
    </linearGradient>
  </defs>
  <ellipse cx="210" cy="292" rx="120" ry="14" fill="rgba(0,0,0,.25)"/>
  <rect x="88" y="118" width="244" height="150" rx="28" fill="url(#env)"/>
  <path d="M88 150 L210 228 L332 150" fill="none" stroke="#9d86ff" stroke-width="10" stroke-linejoin="round"/>
  <rect x="168" y="72" width="84" height="108" rx="18" fill="#ff2f92"/>
  <circle cx="210" cy="118" r="16" fill="none" stroke="#fff" stroke-width="5"/>
  <rect x="196" y="130" width="28" height="22" rx="6" fill="#fff"/>
  <circle cx="86" cy="86" r="32" fill="#1d4ed8"/>
  <path d="M86 72 l10 18 -20 0 z" fill="#57e3b4"/>
  <circle cx="86" cy="78" r="5" fill="#0b2452"/>
  <path d="M78 92 h16" stroke="#57e3b4" stroke-width="3" stroke-linecap="round"/>
  <circle cx="338" cy="70" r="28" fill="#6d4aff"/>
  <circle cx="338" cy="62" r="8" fill="#fff"/>
  <rect x="322" y="74" width="32" height="18" rx="9" fill="#fff"/>
  <rect x="248" y="48" width="92" height="28" rx="10" fill="#1c3268"/>
  <circle cx="264" cy="62" r="4" fill="#cfd8ea"/>
  <circle cx="278" cy="62" r="4" fill="#cfd8ea"/>
  <circle cx="292" cy="62" r="4" fill="#cfd8ea"/>
  <circle cx="306" cy="62" r="4" fill="#cfd8ea"/>
  <circle cx="326" cy="62" r="8" fill="#22c55e"/>
  <path d="M322 62 l3 3 7 -8" fill="none" stroke="#fff" stroke-width="2" stroke-linecap="round"/>
  <path d="M48 210 l28 -10 6 16 -28 12z" fill="#9b5cff"/>
</svg>
